# xmcd
#
# Track frame offsets: 
#        150
#        18825
#        35460
#        51443
#        67793
#        85817
#        103323
#        121379
#        134869
#        152104
#        172187
#        186899
#        201707
#        217504
#        232964
#        251166
#        266429
#        282231
#        297770
#        318810
#
# Disc length: 4473 seconds
#
# Revision: 0
# Processed by: cddbd v1.5.2PL0 Copyright (c) Steve Scherf et al.
# Submitted via: ExactAudioCopy v0.95b3
#
DISCID=2a117714
DTITLE=Various Artist - HP200833
DYEAR=2008
DGENRE=Top 40
TTITLE0=Sarah McLachlan - U Want Me 2 [Radio Mix]
TTITLE1=Gavin DeGraw - Cheated On Me [Album Version]
TTITLE2=David Archuleta - Crush
TTITLE3=Pink - So What [Radio Edit]
TTITLE4=Usher feat Will.I.Am - What's Your Name
TTITLE5=Avant - When It Hurts
TTITLE6=E-40 feat Akon - Wake It Up [Clean]
TTITLE7=Three 6 Mafia feat Akon - That's Right
TTITLE8=Laze and Royal - Like A Pistol [Clean]
TTITLE9=Ace Hood feat Trey Songz - Ride [Single Version (Edited)]
TTITLE10=Adam Gregory - Crazy Days [Single Version]
TTITLE11=Randy Owen - Like I Never Broke Her Heart
TTITLE12=Miranda Lambert - More Like Her
TTITLE13=Kings Of Leon - Sex On Fire [Album Version]
TTITLE14=Disturbed - Indestructible [Radio Edit]
TTITLE15=Cure - The Perfect Boy (Mix 13)
TTITLE16=Seether - Breakdown
TTITLE17=DJ Timbo - Gogo Girl [Dave Aude Chr Edit]
TTITLE18=Casting Crowns - Slow Fade [Album Version]
TTITLE19=Bebo Norman - Pull Me Out [Radio Edit]
EXTD=
EXTT0=
EXTT1=
EXTT2=
EXTT3=
EXTT4=
EXTT5=
EXTT6=
EXTT7=
EXTT8=
EXTT9=
EXTT10=
EXTT11=
EXTT12=
EXTT13=
EXTT14=
EXTT15=
EXTT16=
EXTT17=
EXTT18=
EXTT19=
PLAYORDER=
